<svg xmlns="http://www.w3.org/2000/svg" version="1.1" xmlns:xlink="http://www.w3.org/1999/xlink" xmlns:svgjs="http://svgjs.dev/svgjs" width="1000" height="1000" viewBox="0 0 1000 1000"><g transform="matrix(1,0,0,1,0.8921781483024347,0.8921781483023778)"><svg viewBox="0 0 236 236" data-background-color="#ffffff" preserveAspectRatio="xMidYMid meet" height="1000" width="1000" xmlns="http://www.w3.org/2000/svg" xmlns:xlink="http://www.w3.org/1999/xlink"><g id="tight-bounds" transform="matrix(1,0,0,1,-0.21055404299937663,-0.21055404299936242)"><svg viewBox="0 0 236.42110808599872 236.42110808599872" height="236.42110808599872" width="236.42110808599872"><g><svg></svg></g><g><svg viewBox="0 0 236.42110808599872 236.42110808599872" height="236.42110808599872" width="236.42110808599872"><g><path d="M0 118.211c0-65.286 52.925-118.211 118.211-118.211 65.286 0 118.211 52.925 118.21 118.211 0 65.286-52.925 118.211-118.21 118.21-65.286 0-118.211-52.925-118.211-118.21zM118.211 231.06c62.325 0 112.849-50.524 112.849-112.849 0-62.325-50.524-112.849-112.849-112.85-62.325 0-112.849 50.524-112.85 112.85 0 62.325 50.524 112.849 112.85 112.849z" data-fill-palette-color="tertiary" fill="#7a26c1" stroke="transparent"></path><ellipse rx="113.48213188127939" ry="113.48213188127939" cx="118.21055404299936" cy="118.21055404299936" fill="#7a26c1" stroke="transparent" stroke-width="0" fill-opacity="1" data-fill-palette-color="tertiary"></ellipse></g><g transform="matrix(1,0,0,1,49.260180041937204,88.48533431643686)"><svg viewBox="0 0 137.90074800212432 59.45043945312499" height="59.45043945312499" width="137.90074800212432"><g><svg viewBox="0 0 137.90074800212432 59.45043945312499" height="59.45043945312499" width="137.90074800212432"><g><svg viewBox="0 0 137.90074800212432 59.45043945312499" height="59.45043945312499" width="137.90074800212432"><g><svg viewBox="0 0 137.90074800212432 59.45043945312499" height="59.45043945312499" width="137.90074800212432" id="textblock"><g><svg viewBox="0 0 137.90074800212432 59.45043945312499" height="59.45043945312499" width="137.90074800212432"><g><svg><g></g><g></g></svg></g><g><svg><g><svg></svg></g><g></g></svg></g><g id="text-0"><svg viewBox="0 0 137.90074800212432 59.45043945312499" height="59.45043945312499" width="137.90074800212432"><g transform="matrix(1,0,0,1,0,0)"><svg width="91.24951171875" viewBox="3.130000114440918 -36.25 56.38999938964844 36.7400016784668" height="59.45043945312499" data-palette-color="#ffffff"><path d="M14.4-3.81L14.4-3.81Q15.87-3.81 17.13-4.19 18.38-4.57 19.31-5.26 20.24-5.96 20.76-6.97 21.29-7.98 21.29-9.25L21.29-9.25Q21.29-10.77 20.57-11.82 19.85-12.87 18.65-13.66 17.46-14.45 15.94-15.09 14.43-15.72 12.85-16.38 11.28-17.04 9.77-17.83 8.25-18.63 7.06-19.74 5.86-20.85 5.14-22.39 4.42-23.93 4.42-26.1L4.42-26.1Q4.42-28.47 5.32-30.35 6.23-32.23 7.86-33.54 9.5-34.86 11.77-35.56 14.04-36.25 16.77-36.25L16.77-36.25Q17.58-36.25 18.63-36.18 19.68-36.11 20.87-35.95 22.07-35.79 23.38-35.53 24.68-35.28 26-34.89L26-34.89 25.05-30.15 24.58-29.91Q23.29-30.49 22.07-30.88 20.85-31.27 19.75-31.52 18.65-31.76 17.71-31.86 16.77-31.96 16.06-31.96L16.06-31.96Q14.72-31.96 13.62-31.64 12.52-31.32 11.76-30.71 10.99-30.1 10.56-29.21 10.13-28.32 10.13-27.17L10.13-27.17Q10.13-25.63 10.86-24.55 11.6-23.46 12.78-22.63 13.96-21.8 15.49-21.15 17.02-20.51 18.62-19.84 20.21-19.17 21.74-18.38 23.27-17.6 24.45-16.53 25.63-15.45 26.37-14 27.1-12.55 27.1-10.52L27.1-10.52Q27.1-8.25 26.15-6.25 25.2-4.25 23.45-2.75 21.7-1.25 19.26-0.38 16.82 0.49 13.82 0.49L13.82 0.49Q12.6 0.49 11.25 0.33 9.91 0.17 8.52-0.12 7.13-0.42 5.76-0.85 4.39-1.29 3.13-1.86L3.13-1.86 4.1-6.64 4.59-6.88Q7.18-5.47 9.64-4.64 12.11-3.81 14.4-3.81ZM48.58-27.86L51.05-31.15 51.05-31.64 46.43-31.47 33.27-31.47 34.08-35.77 58.15-35.77 58.15-33.74 41.92-7.86 39.48-4.57 39.48-4.1 44.04-4.3 59.52-4.3 58.71 0 32.3 0 32.3-1.88 48.58-27.86Z" opacity="1" transform="matrix(1,0,0,1,0,0)" fill="#ffffff" class="undefined-text-0" data-fill-palette-color="quaternary"></path></svg></g><g><svg xmlns="http://www.w3.org/2000/svg" xmlns:xlink="http://www.w3.org/1999/xlink" version="1.1" x="105.285400390625" y="0" viewBox="31.412870407104492 15.333873748779297 37.17909240722656 67.76911926269531" enable-background="new 0 0 100 100" xml:space="preserve" height="59.45043945312499" width="32.61534761149932" class="icon-s-0" data-fill-palette-color="accent" id="s-0"><g fill="#01ff70" data-fill-palette-color="accent"><path fill="#01ff70" d="M68.081 61.6c-0.371-0.407-0.901-0.644-1.455-0.644h-4.274v-4.297c0.6-0.336 1.125-0.73 1.581-1.186 0.534-0.536 0.934-1.117 1.236-1.729l0.211 0.075c0.108 0.038 0.219 0.056 0.327 0.056 0.406 0 0.784-0.251 0.927-0.656 0.181-0.511-0.088-1.071-0.6-1.25l-0.24-0.086c0.28-1.337 0.281-2.728 0.279-4.03v-4.229l0.676-0.082c0.54-0.064 0.922-0.553 0.858-1.092-0.065-0.537-0.547-0.921-1.092-0.857l-0.442 0.052v-4.09c0-1.293-0.438-2.483-1.165-3.441 0.462-0.277 0.615-0.873 0.341-1.34-0.274-0.466-0.876-0.621-1.344-0.347l-0.512 0.3c-0.327-0.206-0.674-0.378-1.042-0.515v-3.39c0-2.243-0.609-4.342-1.658-6.156l0.301-0.182c0.468-0.28 0.617-0.883 0.34-1.348-0.281-0.465-0.884-0.614-1.349-0.335l-0.404 0.242c-1.742-2.143-4.185-3.689-6.979-4.291l0.048-0.251c0.102-0.534-0.247-1.048-0.782-1.15-0.528-0.1-1.047 0.248-1.148 0.78l-0.07 0.372c-0.218-0.011-0.432-0.032-0.651-0.032-2.377 0-4.591 0.686-6.477 1.854l-0.073-0.097c-0.325-0.434-0.941-0.52-1.375-0.196s-0.521 0.94-0.196 1.375l0.06 0.08c-1.458 1.261-2.621 2.851-3.363 4.66l-0.384-0.154c-0.502-0.202-1.075 0.044-1.276 0.546-0.203 0.504 0.044 1.077 0.547 1.278l0.519 0.208c-0.21 0.901-0.332 1.835-0.332 2.799v8.359h-0.799c-0.544 0-0.983 0.442-0.983 0.984 0 0.542 0.439 0.98 0.983 0.98h0.799v14.776h-0.311c-0.542 0-0.982 0.439-0.982 0.982 0 0.541 0.44 0.981 0.982 0.981h0.311v5.069h-4.272c-0.555 0-1.083 0.236-1.455 0.644-0.374 0.413-0.553 0.961-0.5 1.514l0.593 6.013c0.09 0.921 0.81 1.636 1.704 1.751l3.382 10.845c0.255 0.821 1.015 1.381 1.875 1.381h22.053c0.86 0 1.619-0.56 1.876-1.381l3.381-10.845c0.896-0.115 1.614-0.83 1.704-1.751l0.593-6.013C68.636 62.561 68.452 62.013 68.081 61.6zM41.576 28.823c0-4.645 3.779-8.425 8.423-8.425 4.646 0 8.426 3.78 8.426 8.425v3.375c-2.19 0.797-3.765 2.895-3.765 5.358v7.896c0 0.132 0.002 0.266 0.003 0.399 0.005 0.271 0.008 0.641-0.014 0.894-0.035 0.001-0.075 0.001-0.117 0.001-1.085 0-1.965 0.88-1.965 1.964s0.88 1.966 1.965 1.966c1.261 0 2.259-0.368 2.973-1.089 1.117-1.128 1.101-2.662 1.086-3.78 0-0.12-0.001-0.237-0.001-0.355v-7.896c0-0.98 0.799-1.778 1.777-1.778s1.775 0.797 1.775 1.778v10.306c0.006 2.057 0.009 3.834-0.993 4.837-0.996 0.998-3.126 1.505-6.335 1.505-1.085 0-1.965 0.879-1.965 1.964 0 1.084 0.88 1.965 1.965 1.965 1.345 0 2.534-0.09 3.61-0.249v3.073H41.576V28.823zM64.456 64.886l-0.204 2.086H35.749l-0.207-2.086H64.456zM59.58 79.173H40.418l-2.456-7.88h24.077L59.58 79.173z" data-fill-palette-color="accent"></path><path fill="#01ff70" d="M46.771 48.6l-1.25-0.109c-0.532-0.048-1.016 0.353-1.065 0.893-0.047 0.54 0.354 1.019 0.894 1.064l1.251 0.11c0.028 0.002 0.057 0.003 0.084 0.003 0.505 0 0.935-0.385 0.979-0.896C47.71 49.124 47.311 48.647 46.771 48.6z" data-fill-palette-color="accent"></path><path fill="#01ff70" d="M44.804 56.859l-1.197 0.11c-0.541 0.05-0.938 0.527-0.89 1.068 0.047 0.511 0.475 0.891 0.977 0.891 0.029 0 0.061 0 0.09-0.001l1.196-0.109c0.541-0.049 0.939-0.528 0.891-1.067C45.821 57.211 45.342 56.814 44.804 56.859z" data-fill-palette-color="accent"></path><path fill="#01ff70" d="M43.783 42.174l1.142 0.217c0.061 0.012 0.124 0.018 0.185 0.018 0.46 0 0.875-0.328 0.964-0.798 0.101-0.534-0.248-1.049-0.781-1.149l-1.141-0.219c-0.533-0.101-1.048 0.249-1.149 0.781C42.901 41.559 43.25 42.071 43.783 42.174z" data-fill-palette-color="accent"></path><path fill="#01ff70" d="M44.868 33.097l1.204 0.262c0.071 0.014 0.141 0.023 0.211 0.023 0.452 0 0.858-0.314 0.958-0.774 0.116-0.531-0.221-1.053-0.75-1.17l-1.205-0.262c-0.532-0.11-1.053 0.222-1.169 0.751C44.002 32.46 44.339 32.982 44.868 33.097z" data-fill-palette-color="accent"></path><path fill="#01ff70" d="M53.403 25.617l0.326-0.762c0.214-0.499-0.018-1.076-0.516-1.29s-1.076 0.016-1.29 0.516l-0.327 0.761c-0.211 0.498 0.018 1.077 0.517 1.29 0.128 0.055 0.257 0.078 0.386 0.078C52.883 26.211 53.243 25.989 53.403 25.617z" data-fill-palette-color="accent"></path><path fill="#01ff70" d="M53.316 33.548c0.188 0 0.377-0.053 0.544-0.165l0.815-0.544c0.451-0.3 0.573-0.91 0.271-1.361-0.299-0.451-0.911-0.573-1.36-0.272l-0.815 0.543c-0.451 0.302-0.572 0.91-0.273 1.362C52.688 33.396 52.999 33.548 53.316 33.548z" data-fill-palette-color="accent"></path></g></svg></g></svg></g></svg></g></svg></g></svg></g><g></g></svg></g></svg></g></svg></g><defs></defs></svg><rect width="236.42110808599872" height="236.42110808599872" fill="none" stroke="none" visibility="hidden"></rect></g></svg></g></svg>